<svg width="32" height="16" viewBox="0 0 32 16" fill="none" xmlns="http://www.w3.org/2000/svg">
<path d="M0.533331 0H2.66667C2.9612 0 3.2 0.223877 3.2 0.5V3.55029C3.89375 2.97754 5.03359 2.5 6.93333 2.5C10.4682 2.5 11.399 4.14673 11.6445 5H13.8667V4C13.8674 3.448 14.3445 3.00073 14.9333 3H17.0667C17.6555 3.00073 18.1326 3.448 18.1333 4H29.3333C30.2167 4.00098 30.9323 4.67188 30.9333 5.5V8H31.4667C31.7612 8 32 8.22388 32 8.5V15.5C32 15.7761 31.7612 16 31.4667 16H29.8667C29.606 16 29.3833 15.8235 29.3406 15.5823L28.8815 13H3.11849L2.65937 15.5823C2.61666 15.8235 2.39401 16 2.13333 16H0.533331C0.2388 16 0 15.7761 0 15.5V0.5C0 0.223877 0.2388 0 0.533331 0ZM6.93333 3.5C4.43385 3.5 3.60781 4.40698 3.33489 5H10.5312C10.2573 4.40503 9.43021 3.5 6.93333 3.5ZM3.2 6V8H13.8667V6H3.2ZM17.0667 4H14.9333V8H17.0667V4ZM29.8667 5.5C29.8664 5.22388 29.6279 5.00024 29.3333 5H18.1333V8H29.8667V5.5ZM30.9333 9H3.2V12H30.9333V9ZM30.3182 15H30.9333V13H29.963L30.3182 15ZM1.06667 15H1.68177L2.13333 12.4587V1H1.06667V15Z" fill="#F5BA21"/>
</svg>
