<svg width="23" height="24" viewBox="0 0 23 24" fill="none" xmlns="http://www.w3.org/2000/svg">
<g clip-path="url(#clip0)">
<path d="M20.6 0.8H19.4V0.4C19.4 0.1791 19.2209 0 19 0C18.7791 0 18.6 0.1791 18.6 0.4V0.8H17.8V0.4C17.8 0.1791 17.6209 0 17.4 0C17.1791 0 17 0.1791 17 0.4V0.8H16.2V0.4C16.2 0.1791 16.0209 0 15.8 0C15.5791 0 15.4 0.1791 15.4 0.4V0.8H14.6V0.4C14.6 0.1791 14.4209 0 14.2 0C13.9791 0 13.8 0.1791 13.8 0.4V0.8H8.2V0.4C8.2 0.1791 8.0209 0 7.8 0C7.5791 0 7.4 0.1791 7.4 0.4V0.8H6.6V0.4C6.6 0.1791 6.4209 0 6.2 0C5.9791 0 5.8 0.1791 5.8 0.4V0.8H5V0.4C5 0.1791 4.8209 0 4.6 0C4.3791 0 4.2 0.1791 4.2 0.4V0.8H3.4V0.4C3.4 0.1791 3.2209 0 3 0C2.7791 0 2.6 0.1791 2.6 0.4V0.8H1.4C1.1791 0.8 1 0.9791 1 1.2V20C1 20.2209 1.1791 20.4 1.4 20.4H13.02C13.2409 20.4006 13.4205 20.2219 13.421 20.001C13.421 19.9914 13.4207 19.9817 13.42 19.972L13.4168 19.9256C13.408 19.8176 13.4 19.7096 13.4 19.6C13.4013 19.2041 13.448 18.8097 13.5392 18.4244C13.6282 18.0409 13.7612 17.669 13.9356 17.316C13.9528 17.2808 13.9684 17.2452 13.9864 17.2104C14.0396 17.1088 14.0972 17.0104 14.1568 16.9124C14.1756 16.8816 14.194 16.85 14.2136 16.8196C14.2784 16.718 14.3467 16.6189 14.4184 16.5224C14.4332 16.502 14.4484 16.4824 14.4636 16.4616C14.5436 16.357 14.6267 16.2558 14.7128 16.1576L14.7248 16.1444C15.2962 15.5067 16.0144 15.0178 16.8172 14.72L16.8876 14.694C16.9956 14.656 17.1052 14.6224 17.216 14.5912C17.266 14.5772 17.3168 14.5644 17.3676 14.5512C17.4612 14.528 17.5552 14.5064 17.6504 14.4884C17.7304 14.4736 17.8136 14.4624 17.8956 14.4512C17.968 14.4408 18.0396 14.4292 18.1128 14.4224C18.2728 14.4072 18.4356 14.3976 18.6 14.3976C18.7084 14.3976 18.8152 14.406 18.92 14.4132L18.97 14.4168C18.9732 14.4168 18.9768 14.4168 18.98 14.4168C19.485 14.4548 19.9818 14.5659 20.4548 14.7468C20.6607 14.827 20.8925 14.7251 20.9727 14.5193C20.9907 14.4731 21 14.424 21 14.3744V1.2C21 0.9791 20.8209 0.8 20.6 0.8ZM13.4216 16.5852C13.4076 16.608 13.3928 16.6296 13.38 16.6524C13.3224 16.7536 13.2704 16.858 13.22 16.9628C13.1916 17.0204 13.1628 17.0776 13.1364 17.1364C13.0928 17.2328 13.052 17.3312 13.0136 17.4304C13.0096 17.4404 13.0052 17.4496 13.0012 17.4596V15.6H14.1416C13.8689 15.9033 13.6278 16.2334 13.4216 16.5852ZM15.4 14.5336C15.2624 14.6208 15.1296 14.7136 15 14.8112V14.8H13V12.4H15.4V14.5336ZM15.4 11.6H13V9.2H15.4V11.6ZM15.4 8.4H13V6H15.4V8.4ZM18.6 9.2V11.6H16.2V9.2H18.6ZM16.2 8.4V6H18.6V8.4H16.2ZM18.6008 13.6C18.4136 13.6 18.2288 13.6108 18.0456 13.628C17.9656 13.6352 17.8908 13.6476 17.8132 13.6576C17.7152 13.6708 17.6176 13.6844 17.5212 13.7024C17.4248 13.7204 17.3188 13.7424 17.2188 13.7668C17.1576 13.7816 17.0964 13.7972 17.0356 13.814C16.9156 13.8468 16.7956 13.8824 16.6756 13.9224C16.6604 13.928 16.6456 13.934 16.6304 13.9392C16.4848 13.99 16.3408 14.0432 16.2008 14.1044V12.4H18.6008V13.6ZM20.2 13.8208C19.9375 13.7472 19.6702 13.6917 19.4 13.6548V5.6C19.4 5.3791 19.2209 5.2 19 5.2H3C2.7791 5.2 2.6 5.3791 2.6 5.6V18.4C2.6 18.6209 2.7791 18.8 3 18.8H12.6596C12.6219 19.0651 12.602 19.3323 12.6 19.6H1.8V4.4H20.2V13.8208ZM9.8 14.8V12.4H12.2V14.8H9.8ZM12.2 15.6V18H9.8V15.6H12.2ZM9.8 11.6V9.2H12.2V11.6H9.8ZM9.8 8.4V6H12.2V8.4H9.8ZM6.6 14.8V12.4H9V14.8H6.6ZM9 15.6V18H6.6V15.6H9ZM6.6 11.6V9.2H9V11.6H6.6ZM6.6 8.4V6H9V8.4H6.6ZM3.4 14.8V12.4H5.8V14.8H3.4ZM5.8 15.6V18H3.4V15.6H5.8ZM3.4 11.6V9.2H5.8V11.6H3.4ZM3.4 8.4V6H5.8V8.4H3.4ZM20.2 3.6H1.8V1.6H2.6V2C2.6 2.2209 2.7791 2.4 3 2.4C3.2209 2.4 3.4 2.2209 3.4 2V1.6H4.2V2C4.2 2.2209 4.3791 2.4 4.6 2.4C4.8209 2.4 5 2.2209 5 2V1.6H5.8V2C5.8 2.2209 5.9791 2.4 6.2 2.4C6.4209 2.4 6.6 2.2209 6.6 2V1.6H7.4V2C7.4 2.2209 7.5791 2.4 7.8 2.4C8.0209 2.4 8.2 2.2209 8.2 2V1.6H13.8V2C13.8 2.2209 13.9791 2.4 14.2 2.4C14.4209 2.4 14.6 2.2209 14.6 2V1.6H15.4V2C15.4 2.2209 15.5791 2.4 15.8 2.4C16.0209 2.4 16.2 2.2209 16.2 2V1.6H17V2C17 2.2209 17.1791 2.4 17.4 2.4C17.6209 2.4 17.8 2.2209 17.8 2V1.6H18.6V2C18.6 2.2209 18.7791 2.4 19 2.4C19.2209 2.4 19.4 2.2209 19.4 2V1.6H20.2V3.6Z" fill="black" fill-opacity="0.5"/>
<path d="M18.6 15.2C16.17 15.2 14.2 17.1699 14.2 19.6C14.2 22.03 16.17 24 18.6 24C21.0301 24 23 22.03 23 19.6C22.9972 17.1711 21.0289 15.2028 18.6 15.2ZM18.6 23.2C16.6118 23.2 15 21.5882 15 19.6C15 17.6117 16.6118 16 18.6 16C20.5883 16 22.2 17.6117 22.2 19.6C22.1978 21.5873 20.5873 23.1978 18.6 23.2Z" fill="black" fill-opacity="0.5"/>
<path d="M20.8731 17.3171C20.7181 17.1674 20.4723 17.1674 20.3173 17.3171L18.6001 19.0343L17.6829 18.1171C17.524 17.9636 17.2708 17.968 17.1173 18.1269C16.9676 18.2819 16.9676 18.5277 17.1173 18.6827L18.3173 19.8827C18.4735 20.0389 18.7267 20.0389 18.8829 19.8827L20.8829 17.8827C21.0364 17.7238 21.032 17.4706 20.8731 17.3171Z" fill="black" fill-opacity="0.5"/>
</g>
<defs>
<clipPath id="clip0">
<rect width="24" height="24" fill="white"/>
</clipPath>
</defs>
</svg>
