<svg width="32" height="30" viewBox="0 0 32 30" fill="none" xmlns="http://www.w3.org/2000/svg">
<path d="M31.3962 13.2179C31.7297 13.2179 32 12.9902 32 12.7095V0.508379C32 0.227629 31.7297 0 31.3962 0C28.7836 0 24.7547 1.74681 24.7547 4.06703V4.57541H12.0754C10.4088 4.57715 9.05857 5.71405 9.05651 7.1173V9.5398C8.45391 9.99009 8.04736 10.597 7.90084 11.2643C4.24841 11.7255 1.47216 14.2686 1.23277 17.3718C0.392259 17.6088 -0.119536 18.3242 0.0240378 19.0607C0.167906 19.7972 0.924985 20.3371 1.81119 20.3352H19.9245C20.8107 20.3371 21.5678 19.7972 21.7116 19.0607C21.8552 18.3242 21.3434 17.6088 20.5029 17.3718C20.2635 14.2686 17.4873 11.7255 13.8348 11.2643C13.6883 10.597 13.2818 9.99009 12.6792 9.5398V7.62568H24.7547V9.15082C24.7547 11.471 28.7836 13.2179 31.3962 13.2179ZM25.9622 4.06703C25.9622 2.59278 28.7467 1.2841 30.7924 1.05275V12.1651C28.7467 11.9337 25.9622 10.6251 25.9622 9.15082V4.06703ZM12.5704 11.1843H9.16529C9.3693 10.6683 9.82921 10.1676 10.2641 10.1676H11.4716C11.9082 10.1676 12.3664 10.6683 12.5704 11.1843ZM19.9245 19.3184H1.81119C1.47776 19.3184 1.20742 19.0908 1.20742 18.81C1.20742 18.5293 1.47776 18.3016 1.81119 18.3016H19.9245C20.2579 18.3016 20.5283 18.5293 20.5283 18.81C20.5283 19.0908 20.2579 19.3184 19.9245 19.3184ZM19.2936 17.2849H2.44209C2.75842 14.4069 5.624 12.2046 9.05651 12.2011H12.6792C16.1117 12.2046 18.9772 14.4069 19.2936 17.2849ZM12.0754 6.60893C11.742 6.60893 11.4716 6.83655 11.4716 7.1173V9.15082H10.2641V7.1173C10.2641 6.27505 11.0751 5.59217 12.0754 5.59217H24.7547V6.60893H12.0754Z" fill="#F5BA21"/>
<path d="M3.01908 21.8604C3.01908 21.5796 2.74874 21.352 2.4153 21.352C2.08187 21.352 1.81152 21.5796 1.81152 21.8604V22.3688C1.81152 22.6495 2.08187 22.8771 2.4153 22.8771C2.74874 22.8771 3.01908 22.6495 3.01908 22.3688V21.8604Z" fill="#F5BA21"/>
<path d="M5.4351 21.8604C5.4351 21.5796 5.16475 21.352 4.83132 21.352C4.49788 21.352 4.22754 21.5796 4.22754 21.8604V24.9107C4.22754 25.1914 4.49788 25.419 4.83132 25.419C5.16475 25.419 5.4351 25.1914 5.4351 24.9107V21.8604Z" fill="#F5BA21"/>
<path d="M7.84916 21.8604C7.84916 21.5796 7.57881 21.352 7.24538 21.352C6.91195 21.352 6.6416 21.5796 6.6416 21.8604V22.3688C6.6416 22.6495 6.91195 22.8771 7.24538 22.8771C7.57881 22.8771 7.84916 22.6495 7.84916 22.3688V21.8604Z" fill="#F5BA21"/>
<path d="M10.2632 21.8604C10.2632 21.5796 9.99288 21.352 9.65944 21.352C9.32601 21.352 9.05566 21.5796 9.05566 21.8604V24.9107C9.05566 25.1914 9.32601 25.419 9.65944 25.419C9.99288 25.419 10.2632 25.1914 10.2632 24.9107V21.8604Z" fill="#F5BA21"/>
<path d="M12.6792 21.8604C12.6792 21.5796 12.4089 21.352 12.0755 21.352C11.742 21.352 11.4717 21.5796 11.4717 21.8604V22.3688C11.4717 22.6495 11.742 22.8771 12.0755 22.8771C12.4089 22.8771 12.6792 22.6495 12.6792 22.3688V21.8604Z" fill="#F5BA21"/>
<path d="M15.0953 21.8604C15.0953 21.5796 14.8249 21.352 14.4915 21.352C14.158 21.352 13.8877 21.5796 13.8877 21.8604V24.9107C13.8877 25.1914 14.158 25.419 14.4915 25.419C14.8249 25.419 15.0953 25.1914 15.0953 24.9107V21.8604Z" fill="#F5BA21"/>
<path d="M17.5093 21.8604C17.5093 21.5796 17.2389 21.352 16.9055 21.352C16.5721 21.352 16.3018 21.5796 16.3018 21.8604V22.3688C16.3018 22.6495 16.5721 22.8771 16.9055 22.8771C17.2389 22.8771 17.5093 22.6495 17.5093 22.3688V21.8604Z" fill="#F5BA21"/>
<path d="M4.83132 26.4356C4.49788 26.4356 4.22754 26.6632 4.22754 26.944V28.4691C4.22754 28.7499 4.49788 28.9775 4.83132 28.9775C5.16475 28.9775 5.4351 28.7499 5.4351 28.4691V26.944C5.4351 26.6632 5.16475 26.4356 4.83132 26.4356Z" fill="#F5BA21"/>
<path d="M9.65944 26.4356C9.32601 26.4356 9.05566 26.6632 9.05566 26.944V28.4691C9.05566 28.7499 9.32601 28.9775 9.65944 28.9775C9.99288 28.9775 10.2632 28.7499 10.2632 28.4691V26.944C10.2632 26.6632 9.99288 26.4356 9.65944 26.4356Z" fill="#F5BA21"/>
<path d="M14.4915 26.4356C14.158 26.4356 13.8877 26.6632 13.8877 26.944V28.4691C13.8877 28.7499 14.158 28.9775 14.4915 28.9775C14.8249 28.9775 15.0953 28.7499 15.0953 28.4691V26.944C15.0953 26.6632 14.8249 26.4356 14.4915 26.4356Z" fill="#F5BA21"/>
<path d="M19.3216 26.4356C18.9881 26.4356 18.7178 26.6632 18.7178 26.944V28.4691C18.7178 28.7499 18.9881 28.9775 19.3216 28.9775C19.655 28.9775 19.9254 28.7499 19.9254 28.4691V26.944C19.9254 26.6632 19.655 26.4356 19.3216 26.4356Z" fill="#F5BA21"/>
<path d="M19.9254 21.8604C19.9254 21.5796 19.655 21.352 19.3216 21.352C18.9881 21.352 18.7178 21.5796 18.7178 21.8604V24.9107C18.7178 25.1914 18.9881 25.419 19.3216 25.419C19.655 25.419 19.9254 25.1914 19.9254 24.9107V21.8604Z" fill="#F5BA21"/>
<path d="M3.01908 24.4023C3.01908 24.1215 2.74874 23.8939 2.4153 23.8939C2.08187 23.8939 1.81152 24.1215 1.81152 24.4023V27.4526C1.81152 27.7333 2.08187 27.9609 2.4153 27.9609C2.74874 27.9609 3.01908 27.7333 3.01908 27.4526V24.4023Z" fill="#F5BA21"/>
<path d="M7.84916 24.4023C7.84916 24.1215 7.57881 23.8939 7.24538 23.8939C6.91195 23.8939 6.6416 24.1215 6.6416 24.4023V27.4526C6.6416 27.7333 6.91195 27.9609 7.24538 27.9609C7.57881 27.9609 7.84916 27.7333 7.84916 27.4526V24.4023Z" fill="#F5BA21"/>
<path d="M12.6792 24.4023C12.6792 24.1215 12.4089 23.8939 12.0755 23.8939C11.742 23.8939 11.4717 24.1215 11.4717 24.4023V27.4526C11.4717 27.7333 11.742 27.9609 12.0755 27.9609C12.4089 27.9609 12.6792 27.7333 12.6792 27.4526V24.4023Z" fill="#F5BA21"/>
<path d="M17.5093 24.4023C17.5093 24.1215 17.2389 23.8939 16.9055 23.8939C16.5721 23.8939 16.3018 24.1215 16.3018 24.4023V27.4526C16.3018 27.7333 16.5721 27.9609 16.9055 27.9609C17.2389 27.9609 17.5093 27.7333 17.5093 27.4526V24.4023Z" fill="#F5BA21"/>
<path d="M2.64483 29.0123C2.53339 28.976 2.41193 28.9673 2.2946 28.9875C2.25774 28.9937 2.22148 29.0018 2.18611 29.0123C2.14866 29.0277 2.11211 29.0445 2.07673 29.0632C2.04548 29.082 2.01541 29.1024 1.98681 29.1242C1.93345 29.1736 1.8907 29.2305 1.86004 29.292C1.82614 29.3523 1.80963 29.4189 1.8117 29.4856C1.80875 29.6927 1.95527 29.8803 2.18198 29.9605C2.40839 30.0404 2.67019 29.9967 2.84353 29.85C3.01688 29.7033 3.0673 29.4829 2.97089 29.2925C2.94171 29.2302 2.89866 29.1734 2.84412 29.1247C2.78398 29.08 2.71677 29.0423 2.64483 29.0123Z" fill="#F5BA21"/>
<path d="M6.81675 29.1249C6.76221 29.1736 6.71917 29.2304 6.68998 29.2928C6.59358 29.4819 6.64399 29.7014 6.81675 29.8468C6.87453 29.8927 6.94204 29.929 7.01604 29.9536C7.24068 30.0347 7.50129 29.9925 7.67405 29.8468C7.8471 29.7014 7.89722 29.4819 7.80081 29.2928C7.77015 29.2312 7.72741 29.1743 7.67405 29.1249C7.43201 28.9368 7.05878 28.9368 6.81675 29.1249Z" fill="#F5BA21"/>
<path d="M12.4074 29.064C12.3753 29.0444 12.3408 29.0275 12.3048 29.0131C12.2674 29.0022 12.2288 28.9937 12.1896 28.9883C12.0746 28.9684 11.9552 28.9771 11.8461 29.0131C11.7739 29.0431 11.707 29.0809 11.6468 29.1255C11.5923 29.1742 11.5492 29.231 11.5201 29.2934C11.4237 29.4825 11.4741 29.702 11.6468 29.8474C11.7055 29.8924 11.773 29.9284 11.8461 29.9542C12.0708 30.0354 12.3314 29.9932 12.5041 29.8474C12.6772 29.702 12.7273 29.4825 12.6309 29.2934C12.6002 29.2318 12.5575 29.1749 12.5041 29.1255C12.4743 29.1025 12.4422 29.0818 12.4074 29.064Z" fill="#F5BA21"/>
<path d="M16.4771 29.1249C16.4225 29.1736 16.3795 29.2304 16.3503 29.2928C16.3164 29.3531 16.2999 29.4191 16.3019 29.4859C16.3005 29.6212 16.3635 29.7512 16.4771 29.8468C16.5357 29.8917 16.6032 29.9277 16.6764 29.9535C16.8621 30.0206 17.0753 30.0042 17.2433 29.9099C17.4113 29.8155 17.5116 29.6559 17.5095 29.4859C17.5113 29.4191 17.4948 29.3531 17.4612 29.2928C17.4305 29.2312 17.3878 29.1743 17.3344 29.1249C17.0924 28.9368 16.7191 28.9368 16.4771 29.1249Z" fill="#F5BA21"/>
</svg>
