<svg width="24" height="10" viewBox="0 0 24 10" fill="none" xmlns="http://www.w3.org/2000/svg">
<path d="M24 5.00234C24 4.68384 23.7208 4.42623 23.3756 4.42623H2.12183L5.85787 0.978923C6.10152 0.754099 6.10152 0.393443 5.85787 0.168618C5.61421 -0.0562061 5.22335 -0.0562061 4.9797 0.168618L0.182741 4.59485C-0.0609137 4.81967 -0.0609137 5.18033 0.182741 5.40515L4.9797 9.83138C5.10152 9.94379 5.25888 10 5.42132 10C5.58376 10 5.74112 9.94379 5.86294 9.83138C6.1066 9.60656 6.1066 9.2459 5.86294 9.02108L2.1269 5.57377H23.3858C23.7208 5.57377 24 5.32084 24 5.00234Z" fill="black"/>
</svg>
