<svg width="16" height="8" viewBox="0 0 16 8" fill="none" xmlns="http://www.w3.org/2000/svg">
<path d="M0.266665 6.10352e-05H1.33333C1.4806 6.10352e-05 1.6 0.111999 1.6 0.250061V1.77521C1.94687 1.48883 2.5168 1.25006 3.46667 1.25006C5.23411 1.25006 5.69948 2.07343 5.82226 2.50006H6.93333V2.00006C6.93372 1.72406 7.17227 1.50043 7.46667 1.50006H8.53333C8.82773 1.50043 9.06628 1.72406 9.06667 2.00006H14.6667C15.1083 2.00055 15.4661 2.336 15.4667 2.75006V4.00006H15.7333C15.8806 4.00006 16 4.112 16 4.25006V7.75006C16 7.88812 15.8806 8.00006 15.7333 8.00006H14.9333C14.803 8.00006 14.6917 7.9118 14.6703 7.7912L14.4408 6.50006H1.55924L1.32969 7.7912C1.30833 7.9118 1.197 8.00006 1.06667 8.00006H0.266665C0.1194 8.00006 0 7.88812 0 7.75006V0.250061C0 0.111999 0.1194 6.10352e-05 0.266665 6.10352e-05ZM3.46667 1.75006C2.21693 1.75006 1.80391 2.20355 1.66745 2.50006H5.26562C5.12864 2.20258 4.7151 1.75006 3.46667 1.75006ZM1.6 3.00006V4.00006H6.93333V3.00006H1.6ZM8.53333 2.00006H7.46667V4.00006H8.53333V2.00006ZM14.9333 2.75006C14.9332 2.612 14.8139 2.50018 14.6667 2.50006H9.06667V4.00006H14.9333V2.75006ZM15.4667 4.50006H1.6V6.00006H15.4667V4.50006ZM15.1591 7.50006H15.4667V6.50006H14.9815L15.1591 7.50006ZM0.533333 7.50006H0.840884L1.06667 6.22943V0.500061H0.533333V7.50006Z" fill="#F5BA21"/>
</svg>
