<svg width="1440" height="133" viewBox="0 0 1440 133" fill="none" xmlns="http://www.w3.org/2000/svg">
<path fill-rule="evenodd" clip-rule="evenodd" d="M0 88.9662L60 96.3476C120 103.729 240 118.237 360 112.892C480 107.292 600 81.5848 720 76.2396C840 70.64 960 85.4027 1080 92.7841C1200 99.911 1320 99.911 1380 99.911H1440V133H1380C1320 133 1200 133 1080 133C960 133 840 133 720 133C600 133 480 133 360 133C240 133 120 133 60 133H0L0 88.9662Z" fill="#82C4CE" fill-opacity="0.5"/>
<path fill-rule="evenodd" clip-rule="evenodd" d="M0 32.0259L60 48.9522C120 65.8785 240 99.1474 360 86.8904C480 74.0498 600 15.0996 720 2.84262C840 -9.99802 960 23.8546 1080 40.7809C1200 57.1235 1320 57.1235 1380 57.1235H1440V133H1380C1320 133 1200 133 1080 133C960 133 840 133 720 133C600 133 480 133 360 133C240 133 120 133 60 133H0L0 32.0259Z" fill="#82C4CE" fill-opacity="0.5"/>
</svg>
