<svg width="78" height="1824" viewBox="0 0 78 1824" fill="none" xmlns="http://www.w3.org/2000/svg">
<path fill-rule="evenodd" clip-rule="evenodd" d="M14.6886 1824L22.4518 1752.04C30.2149 1680.08 45.4736 1536.17 39.852 1392.25C33.9627 1248.33 6.92538 1104.42 1.30376 960.5C-4.58556 816.583 10.9408 672.667 18.704 528.75C26.1995 384.833 26.1995 240.917 26.1995 168.958V97H61V168.958C61 240.917 61 384.833 61 528.75C61 672.667 61 816.583 61 960.5C61 1104.42 61 1248.33 61 1392.25C61 1536.17 61 1680.08 61 1752.04V1824H14.6886Z" fill="#82C4CE" fill-opacity="0.5"/>
<path fill-rule="evenodd" clip-rule="evenodd" d="M30.9294 1727L38.8198 1655.04C46.7103 1583.08 62.2191 1439.17 56.5053 1295.25C50.5195 1151.33 23.0389 1007.42 17.3251 863.5C11.3393 719.583 27.1202 575.667 35.0106 431.75C42.629 287.833 42.629 143.917 42.629 71.9584V3.05176e-05H78V71.9584C78 143.917 78 287.833 78 431.75C78 575.667 78 719.583 78 863.5C78 1007.42 78 1151.33 78 1295.25C78 1439.17 78 1583.08 78 1655.04V1727H30.9294Z" fill="#82C4CE" fill-opacity="0.5"/>
</svg>
