<svg width="782" height="1562" viewBox="0 0 782 1562" fill="none" xmlns="http://www.w3.org/2000/svg">
<path d="M774.133 1404.14C773.933 1402.35 773.72 1400.53 773.473 1398.72" stroke="black" stroke-opacity="0.2" stroke-linecap="round" stroke-linejoin="round"/>
<path d="M770.531 1380.91C754.865 1303.4 704.105 1226.45 653.709 1169.54C621.955 1133.67 582.267 1099.39 539.756 1076.79C422.06 1014.19 270.751 1053.11 171.945 947.437C137.895 911.023 111.964 846.329 167.724 815.377C217.372 789.144 281.593 850.61 257.393 903.576C228.083 963.642 135.101 956.839 86.6917 930.889C-18.0397 871.575 -78.9104 707.98 -58.266 596.817C-35.6305 477.153 179.972 344.084 145.811 223.631C111.295 101.912 -27.1301 52.0307 -166.274 194.675" stroke="black" stroke-opacity="0.2" stroke-linecap="round" stroke-linejoin="round" stroke-dasharray="2.98 2.98"/>
<path d="M3.03029 1285.92C-48.7236 1303.17 -74.2561 1371.41 -62.6655 1425.03C-54.7564 1459.89 -10.4129 1510.57 29.1804 1496.31C87.7746 1474.14 30.7717 1425.03 -0.912399 1417.12C-95.9172 1391.77 -208.332 1467.8 -186.172 1572.34C-162.421 1687.98 11.747 1691.14 87.7508 1637.28C151.095 1592.92 176.414 1508.98 223.916 1450.36C268.26 1396.5 347.114 1330.85 410.767 1301.46C467.461 1275.3 536.316 1285.63 597 1281" stroke="black" stroke-opacity="0.2" stroke-linecap="round" stroke-linejoin="round" stroke-dasharray="3.01 3.01"/>
</svg>
