<svg width="618" height="491" viewBox="0 0 618 491" fill="none" xmlns="http://www.w3.org/2000/svg">
<path d="M311.937 489.902C312.625 489.007 313.313 488.089 313.978 487.148" stroke="black" stroke-opacity="0.2" stroke-linecap="round" stroke-linejoin="round"/>
<path d="M320.056 477.465C345.952 431.365 358.75 348.437 438.111 356.812C522.977 365.991 403.706 450.893 403.706 368.286C403.706 310.92 495.453 329.277 532.151 329.277C651.422 329.277 639.953 203.071 532.151 187.009C468.456 176.018 352.19 194.489 296.11 153.782" stroke="black" stroke-opacity="0.2" stroke-linecap="round" stroke-linejoin="round" stroke-dasharray="2.98 2.98"/>
<path d="M291.592 150.249C290.72 149.514 289.849 148.757 289 148" stroke="black" stroke-opacity="0.2" stroke-linecap="round" stroke-linejoin="round"/>
<path d="M83.5249 1C82.401 1.2983 81.3001 1.59661 80.1991 1.91786" stroke="black" stroke-opacity="0.2" stroke-linecap="round" stroke-linejoin="round"/>
<path d="M69.3041 5.86462C-7.02898 39.0452 -15.0797 165.205 23.8896 225.875C92.6995 338.312 228.026 292.42 273.899 184.571C276.995 178.376 279.037 172.18 280.757 165.985" stroke="black" stroke-opacity="0.2" stroke-linecap="round" stroke-linejoin="round" stroke-dasharray="3.04 3.04"/>
<path d="M282.248 160.363C282.523 159.238 282.798 158.137 283.096 157.036" stroke="black" stroke-opacity="0.2" stroke-linecap="round" stroke-linejoin="round"/>
</svg>
