<svg width="153" height="112" viewBox="0 0 153 112" fill="none" xmlns="http://www.w3.org/2000/svg">
<path d="M21.7579 101.797C21.7579 104.712 20.8161 107.063 19.0266 108.897C17.2372 110.73 14.6471 111.718 11.6333 111.718C9.938 111.718 8.19562 111.483 6.50033 111.013C4.4754 110.448 2.40338 109.649 0.425537 108.427L2.40338 105.135C5.51141 106.922 8.47817 107.862 11.6333 107.862C15.589 107.862 17.8964 105.652 17.8964 101.844C17.8964 99.3988 17.2372 98.4585 16.625 97.8942C15.589 96.9068 13.8466 96.3426 11.1624 95.9664C7.96016 95.4962 5.79396 94.6499 4.28703 93.2863C2.78011 91.8757 2.02665 89.8539 2.02665 87.1738C2.02665 84.5407 2.92138 82.3308 4.4754 80.7322C6.1236 79.0865 8.43107 78.1931 11.2095 78.1931C14.553 78.1931 17.9906 79.1805 21.2399 81.1083L19.2621 84.3997C16.5779 82.801 13.9408 82.0017 11.2095 82.0017C7.86598 82.0017 5.93523 83.8825 5.93523 87.1738C5.93523 89.1956 6.50033 90.042 6.97124 90.4652C7.81889 91.3115 9.37291 91.7817 11.7275 92.1108C15.2593 92.6281 17.7081 93.5684 19.3092 95.0731C20.9103 96.6247 21.7579 98.8346 21.7579 101.797Z" fill="#F5BA21"/>
<path d="M39.5114 111.436H35.7441V110.26L34.9435 110.542C32.9657 111.483 30.7524 111.906 28.2565 111.906C24.6776 111.906 22.2759 109.649 21.9934 106.076C21.7108 102.643 23.6887 98.5995 27.0792 98.1293C27.5973 98.0353 28.1153 98.0353 28.6333 98.0353C30.6582 98.0353 32.8715 98.4114 34.9435 98.8816L35.7441 99.0697V97.283C35.7912 95.8254 35.7441 94.7909 35.4144 94.0856C35.0848 93.3333 34.5197 92.9572 33.5308 92.7691C33.2482 92.7221 32.9657 92.6751 32.636 92.6751C29.7635 92.6751 25.8549 94.5558 25.1014 94.932L22.7468 91.9698C23.6887 91.4055 28.2094 88.8195 33.2953 88.8195C33.9075 88.8195 35.3673 88.9135 36.6859 89.5718C38.3341 90.4181 39.2759 91.7347 39.4643 93.6625C39.5585 94.1797 39.5114 111.436 39.5114 111.436ZM35.7441 102.314L35.2731 102.22C34.0959 101.938 32.2122 101.656 30.0931 101.656C29.1042 101.656 28.2565 101.703 27.3618 101.844C26.8909 101.938 26.42 102.408 26.0903 103.113C25.6665 103.96 25.431 104.853 25.5252 105.793C25.6194 107.251 26.5612 108.05 28.2565 108.05C31.7413 108.05 35.697 108.05 35.697 105.182V102.314H35.7441Z" fill="#F5BA21"/>
<path d="M45.5862 78.6633V106.593C45.5862 106.687 45.6333 106.922 45.6803 107.204C45.7745 107.486 45.8216 107.721 46.01 107.909C46.2925 108.144 46.7164 108.285 47.2344 108.285C47.7053 108.285 48.3646 108.097 49.2122 107.768C50.1069 107.392 50.7662 107.11 51.3313 106.781L53.1679 110.072C52.8853 110.26 52.1319 110.636 50.8133 111.154C49.5889 111.718 48.3646 112 47.2344 112C46.1984 112 45.3036 111.812 44.6443 111.483C43.9851 111.107 43.6083 110.777 43.2316 110.448C42.4781 109.696 42.1014 108.897 41.9601 108.05C41.8659 107.157 41.8188 106.687 41.8188 106.405V78.6163H45.5862V78.6633Z" fill="#F5BA21"/>
<path d="M65.5059 110.025C64.8937 110.354 61.8798 112 59.5724 112C57.5004 112 56.276 111.107 55.5696 110.401C54.1569 108.897 54.1569 106.828 54.1569 106.358V92.9101H50.4366V89.3367H54.1569V83.8354H57.9242V89.3367H64.2815V92.9101H57.9242V106.499C57.9242 106.499 58.0184 107.486 58.348 107.815C58.6305 108.097 59.0544 108.191 59.5724 108.191C60.5613 108.191 62.5391 107.345 63.6222 106.734L65.5059 110.025Z" fill="#F5BA21"/>
<path d="M83.0709 111.436H79.3036V110.26L78.5031 110.542C76.5252 111.483 74.3119 111.906 71.8161 111.906C68.2371 111.906 65.8355 109.649 65.5529 106.076C65.2704 102.643 67.2482 98.5995 70.6388 98.1293C71.1568 98.0353 71.6748 98.0353 72.1928 98.0353C74.2178 98.0353 76.4311 98.4114 78.5031 98.8816L79.3036 99.0697V97.283C79.3507 95.8254 79.3036 94.7909 78.974 94.0856C78.6443 93.3333 78.0793 92.9572 77.0903 92.7691C76.8078 92.7221 76.5252 92.6751 76.1956 92.6751C73.323 92.6751 69.4144 94.5558 68.661 94.932L66.3064 91.9698C67.2482 91.4055 71.769 88.8195 76.8549 88.8195C77.4671 88.8195 78.9269 88.9135 80.2455 89.5718C81.8937 90.4181 82.8355 91.7347 83.0238 93.6625C83.118 94.1797 83.0709 111.436 83.0709 111.436ZM79.3036 102.314L78.8327 102.22C77.6554 101.938 75.7718 101.656 73.6527 101.656C72.6637 101.656 71.8161 101.703 70.9214 101.844C70.4504 101.938 69.9795 102.408 69.6499 103.113C69.2261 103.96 68.9906 104.853 69.0848 105.793C69.179 107.251 70.1208 108.05 71.8161 108.05C75.3009 108.05 79.2565 108.05 79.2565 105.182V102.314H79.3036Z" fill="#F5BA21"/>
<path d="M103.697 95.7313V111.483H99.8825V95.7783C99.8825 94.6499 99.5529 93.7565 98.9878 93.2393C98.0459 92.3459 96.3507 92.44 96.3507 92.44C94.2315 92.44 91.9241 95.026 90.7468 96.2956C89.4282 97.7532 89.1457 99.6809 89.0986 100.715V111.483H85.2842V89.2897H89.0986V93.3333C90.6997 91.5936 93.3368 88.6784 96.2565 88.6784C96.9628 88.6784 99.5529 88.5844 101.578 90.4181C102.52 91.2645 103.697 92.9102 103.697 95.7313Z" fill="#F5BA21"/>
<path d="M114.104 111.718C111.891 111.718 109.112 111.389 107.135 108.944C105.015 106.311 104.592 101.938 104.592 100.151C104.592 98.3644 105.015 93.9916 107.135 91.3585C109.065 88.9605 111.75 88.6314 114.104 88.6314C116.506 88.6314 119.237 88.9605 121.168 91.3585C123.287 93.9916 123.664 98.3644 123.664 100.151C123.664 101.938 123.287 106.311 121.168 108.944C119.096 111.389 116.27 111.718 114.104 111.718ZM114.104 92.2049C111.891 92.2049 110.855 92.534 110.054 93.4744C109.112 94.6029 108.642 97.33 108.642 100.151C108.642 102.972 109.16 105.699 110.054 106.828C110.902 107.862 111.938 108.144 114.104 108.144C116.27 108.144 117.353 107.815 118.201 106.828C119.143 105.699 119.614 102.972 119.614 100.151C119.614 97.33 119.096 94.6499 118.201 93.4744C117.401 92.534 116.27 92.2049 114.104 92.2049Z" fill="#F5BA21"/>
<path d="M151.165 92.9101H144.761V111.483H140.993V92.9101H130.398V111.483H126.63V92.9101H122.91V89.3367H126.63V84.7288C126.63 84.4467 126.678 83.8824 126.772 83.0831C126.913 82.1897 127.337 81.3904 128.043 80.6381C128.42 80.2149 128.891 79.8388 129.503 79.6037C130.257 79.2275 131.057 79.0394 132.093 79.0865C132.705 79.0394 133.27 79.1335 133.93 79.3216C134.636 79.5096 135.248 79.6977 135.86 79.8858C136.52 80.0739 137.038 80.2619 137.462 80.45C137.932 80.6381 138.262 80.7321 138.45 80.8262L136.143 84.1175C135.578 83.7884 134.919 83.4593 134.071 83.1771C133.223 82.848 132.611 82.707 132.093 82.707C131.528 82.707 131.104 82.801 130.869 83.0831C130.68 83.2712 130.586 83.5063 130.492 83.8354C130.445 84.1175 130.398 84.3526 130.398 84.4467V89.3837H140.993V83.9765C140.993 83.6944 141.04 83.1301 141.135 82.3308C141.276 81.4374 141.7 80.6381 142.406 79.8858C142.783 79.4626 143.254 79.0865 143.866 78.8514C144.619 78.4752 145.42 78.2871 146.456 78.3342C147.586 78.2871 148.811 78.5693 149.988 79.1805C151.259 79.7447 152.06 80.1209 152.342 80.262L150.506 83.3652C149.941 83.0361 149.281 82.707 148.434 82.4248C147.586 82.0957 146.974 81.9546 146.456 81.9546C145.891 81.9546 145.467 82.0487 145.232 82.3308C145.043 82.5189 144.949 82.754 144.855 83.0831C144.808 83.3652 144.761 83.6003 144.761 83.6944V89.4307H151.165V92.9101Z" fill="#F5BA21"/>
<path d="M86.179 80.309C81.9878 80.309 78.5502 76.9236 78.5502 72.6919V59.7615L75.6305 62.3946L72.8521 59.3384L96.3978 37.8976L119.944 59.3384L117.165 62.3946L114.245 59.7615V72.7389C114.245 76.9236 110.855 80.356 106.617 80.356H86.179V80.309ZM82.6942 55.953V72.7389C82.6942 74.6667 84.2482 76.2183 86.179 76.2183H106.664C108.594 76.2183 110.101 74.6667 110.101 72.7389V55.953L96.3978 43.4929L82.6942 55.953ZM70.4504 78.8984C70.1208 78.6633 62.7275 72.6448 55.2399 64.0403C44.974 52.2855 39.7939 41.8002 39.7939 32.8195V31.9261C39.7939 14.3409 54.1568 0 71.769 0C89.3812 0 103.744 14.3409 103.744 31.9261V32.6784L99.4117 28.7288C97.8106 14.67 85.9906 4.1377 71.769 4.1377C56.4172 4.1377 43.938 16.5978 43.938 31.9261V32.8195C43.938 48.618 63.8577 67.5667 70.5917 73.5382V78.9924L70.4504 78.8984ZM92.8189 67.2376V59.8556H100.212V67.2376H92.8189ZM71.769 44.4803C64.8466 44.4803 59.1956 38.838 59.1956 31.9261C59.1956 25.0143 64.8466 19.372 71.769 19.372C78.6914 19.372 84.3424 25.0143 84.3424 31.9261C84.3424 38.838 78.6914 44.4803 71.769 44.4803ZM71.769 23.5097C67.107 23.5097 63.3396 27.2712 63.3396 31.9261C63.3396 36.581 67.107 40.3426 71.769 40.3426C76.4311 40.3426 80.1984 36.581 80.1984 31.9261C80.1984 27.2712 76.4311 23.5097 71.769 23.5097Z" fill="#F43D3D"/>
</svg>
