<svg width="1440" height="2784" viewBox="0 0 1440 2784" fill="none" xmlns="http://www.w3.org/2000/svg">
<path d="M97.9343 411.523C96.6788 411.372 95.4484 411.171 94.218 410.971" stroke="black" stroke-opacity="0.2" stroke-linecap="round" stroke-linejoin="round"/>
<path d="M82.0147 407.907C27.3004 389.68 0.307328 317.574 12.5609 260.908C20.9225 224.077 67.8025 170.524 109.661 185.588C171.607 209.013 111.343 260.908 77.8465 269.269C-22.5928 296.057 -141.438 215.716 -118.01 105.247C-92.9003 -16.9467 91.23 -20.2859 171.581 36.6308C238.549 83.5049 265.316 172.207 315.536 234.145C362.416 291.061 445.781 360.431 513.075 391.488C573.012 419.13 645.805 408.209 709.961 413.104" stroke="black" stroke-opacity="0.2" stroke-linecap="round" stroke-linejoin="round" stroke-dasharray="3.01 3.01"/>
<path d="M716.238 413.582C717.494 413.707 718.749 413.833 719.98 413.958" stroke="black" stroke-opacity="0.2" stroke-linecap="round" stroke-linejoin="round"/>
<path d="M1202.01 865.411C1202.7 864.516 1203.39 863.598 1204.05 862.657" stroke="black" stroke-opacity="0.2" stroke-linecap="round" stroke-linejoin="round"/>
<path d="M1210.13 852.974C1236.03 806.874 1248.82 723.946 1328.18 732.321C1413.05 741.5 1293.78 826.402 1293.78 743.795C1293.78 686.429 1385.53 704.786 1422.23 704.786C1541.5 704.786 1530.03 578.58 1422.23 562.518C1358.53 551.526 1242.26 569.998 1186.18 529.291" stroke="black" stroke-opacity="0.2" stroke-linecap="round" stroke-linejoin="round" stroke-dasharray="2.98 2.98"/>
<path d="M1181.67 525.758C1180.79 525.023 1179.92 524.266 1179.07 523.509" stroke="black" stroke-opacity="0.2" stroke-linecap="round" stroke-linejoin="round"/>
<path d="M979.525 356C978.401 356.298 977.3 356.597 976.199 356.918" stroke="black" stroke-opacity="0.2" stroke-linecap="round" stroke-linejoin="round"/>
<path d="M965.304 360.865C888.971 394.045 880.92 520.205 919.89 580.875C988.7 693.312 1124.03 647.42 1169.9 539.571C1173 533.376 1175.04 527.18 1176.76 520.985" stroke="black" stroke-opacity="0.2" stroke-linecap="round" stroke-linejoin="round" stroke-dasharray="3.04 3.04"/>
<path d="M1178.25 515.363C1178.52 514.238 1178.8 513.137 1179.1 512.036" stroke="black" stroke-opacity="0.2" stroke-linecap="round" stroke-linejoin="round"/>
<path d="M-72.4747 1291.74C-2.82485 1302.76 77.266 1284.26 140.496 1259.84C180.347 1244.46 221.332 1221.95 253.434 1193.45C342.344 1114.56 356.871 976.012 475.905 926.299C516.923 909.167 579.05 907.613 587.578 963.835C594.063 1013.48 522.727 1048.04 485.989 1011.35C444.906 968.175 479.504 892.585 516.242 860.199C598.376 791.12 754.018 791.12 840.497 842.937C933.46 899.063 977.624 1120.62 1088.91 1129.52C1201.36 1138.53 1286.09 1038.36 1210.15 877.72" stroke="black" stroke-opacity="0.2" stroke-linecap="round" stroke-linejoin="round" stroke-dasharray="2.98 2.98"/>
<path d="M1206.64 870.466C1206.39 869.915 1206.09 869.397 1205.83 868.846L1203.66 866.677" stroke="black" stroke-opacity="0.2" stroke-linecap="round" stroke-linejoin="round"/>
<path d="M774.133 2626.14C773.932 2624.35 773.72 2622.53 773.473 2620.72" stroke="black" stroke-opacity="0.2" stroke-linecap="round" stroke-linejoin="round"/>
<path d="M770.531 2602.91C754.865 2525.4 704.105 2448.45 653.709 2391.54C621.954 2355.67 582.266 2321.39 539.756 2298.79C422.059 2236.19 270.751 2275.11 171.945 2169.44C137.895 2133.02 111.963 2068.33 167.723 2037.38C217.372 2011.14 281.593 2072.61 257.392 2125.58C228.083 2185.64 135.1 2178.84 86.6912 2152.89C-18.0402 2093.58 -78.9108 1929.98 -58.2665 1818.82C-35.631 1699.15 179.972 1566.08 145.81 1445.63C111.295 1323.91 -27.1306 1274.03 -166.274 1416.67" stroke="black" stroke-opacity="0.2" stroke-linecap="round" stroke-linejoin="round" stroke-dasharray="2.98 2.98"/>
<path d="M1044.03 1397.92C992.276 1415.17 966.744 1483.41 978.334 1537.03C986.243 1571.89 1030.59 1622.57 1070.18 1608.31C1128.77 1586.14 1071.77 1537.03 1040.09 1529.12C945.083 1503.77 832.668 1579.8 854.828 1684.34C878.579 1799.98 1052.75 1803.14 1128.75 1749.28C1192.1 1704.92 1217.41 1620.98 1264.92 1562.36C1309.26 1508.5 1388.11 1442.85 1451.77 1413.46C1508.46 1387.3 1577.32 1397.63 1638 1393" stroke="black" stroke-opacity="0.2" stroke-linecap="round" stroke-linejoin="round" stroke-dasharray="3.01 3.01"/>
<path d="M3.03011 2507.92C-48.7237 2525.17 -74.2563 2593.41 -62.6657 2647.03C-54.7565 2681.89 -10.4131 2732.57 29.1802 2718.31C87.7744 2696.14 30.7715 2647.03 -0.912582 2639.12C-95.9174 2613.77 -208.332 2689.8 -186.172 2794.34C-162.421 2909.98 11.7468 2913.14 87.7506 2859.28C151.095 2814.92 176.414 2730.98 223.916 2672.36C268.26 2618.5 347.114 2552.85 410.767 2523.46C467.461 2497.3 536.316 2507.63 597 2503" stroke="black" stroke-opacity="0.2" stroke-linecap="round" stroke-linejoin="round" stroke-dasharray="3.01 3.01"/>
<path d="M962.189 2553.8C970.19 2607.76 1032.96 2644.76 1087.78 2642.65C1123.48 2640.92 1181.09 2606.05 1173.93 2564.58C1162.27 2503.03 1104.01 2550.64 1090.71 2580.47C1049.25 2669.63 1104.61 2793.53 1211.41 2789.87C1329.42 2786.56 1362.77 2615.58 1322.92 2531.38C1290.24 2461.3 1211.97 2421.78 1162.49 2364.83C1117.14 2311.8 1066.19 2222.75 1048.29 2154.96C1032.38 2094.58 1054.51 2028.57 1060.49 1968" stroke="black" stroke-opacity="0.2" stroke-linecap="round" stroke-linejoin="round" stroke-dasharray="3.01 3.01"/>
</svg>
