<svg width="24" height="24" viewBox="0 0 24 24" fill="none" xmlns="http://www.w3.org/2000/svg">
<path d="M12 0C5.38338 0 0 5.38302 0 12C0 18.617 5.38338 24 12 24C18.6166 24 24 18.617 24 12C24 5.38302 18.6166 0 12 0ZM12 22.5231C6.19754 22.5231 1.47692 17.8025 1.47692 12C1.47692 6.19754 6.19754 1.47692 12 1.47692C17.8025 1.47692 22.5231 6.19754 22.5231 12C22.5231 17.8025 17.8025 22.5231 12 22.5231Z" fill="black" fill-opacity="0.5"/>
<path d="M12.1912 8.45014C12.8733 8.45014 13.4263 7.89717 13.4263 7.21506C13.4263 6.53294 12.8733 5.97998 12.1912 5.97998C11.5091 5.97998 10.9561 6.53294 10.9561 7.21506C10.9561 7.89717 11.5091 8.45014 12.1912 8.45014Z" fill="black" fill-opacity="0.5"/>
<path d="M11.866 10.4647C11.4583 10.4647 11.1275 10.7956 11.1275 11.2032V17.4801C11.1275 17.8877 11.4583 18.2186 11.866 18.2186C12.2736 18.2186 12.6044 17.8877 12.6044 17.4801V11.2032C12.6044 10.7952 12.2736 10.4647 11.866 10.4647Z" fill="black" fill-opacity="0.5"/>
</svg>
