<svg width="843" height="415" viewBox="0 0 843 415" fill="none" xmlns="http://www.w3.org/2000/svg">
<path d="M219.934 411.523C218.679 411.372 217.448 411.171 216.218 410.971" stroke="black" stroke-opacity="0.2" stroke-linecap="round" stroke-linejoin="round"/>
<path d="M204.015 407.907C149.3 389.68 122.307 317.574 134.561 260.908C142.922 224.077 189.803 170.524 231.661 185.588C293.607 209.013 233.343 260.908 199.846 269.269C99.4072 296.057 -19.4376 215.716 3.98987 105.247C29.0997 -16.9467 213.23 -20.2859 293.581 36.6308C360.549 83.5049 387.316 172.207 437.536 234.145C484.416 291.061 567.781 360.431 635.075 391.488C695.012 419.13 767.805 408.209 831.961 413.104" stroke="black" stroke-opacity="0.2" stroke-linecap="round" stroke-linejoin="round" stroke-dasharray="3.01 3.01"/>
<path d="M838.238 413.582C839.494 413.707 840.749 413.833 841.98 413.958" stroke="black" stroke-opacity="0.2" stroke-linecap="round" stroke-linejoin="round"/>
</svg>
