<svg width="15" height="14" viewBox="0 0 15 14" fill="none" xmlns="http://www.w3.org/2000/svg">
<path d="M14.0988 6.1683C14.2486 6.1683 14.37 6.06208 14.37 5.93106V0.237242C14.37 0.106226 14.2486 0 14.0988 0C12.9256 0 11.1164 0.815173 11.1164 1.89794V2.13518H5.42259C4.67419 2.13599 4.06785 2.66654 4.06692 3.32139V4.45189C3.79632 4.66202 3.61376 4.94525 3.54796 5.25663C1.90779 5.47187 0.661089 6.65866 0.553589 8.10679C0.176148 8.21742 -0.0536789 8.55127 0.0107944 8.89497C0.0754002 9.23867 0.415375 9.49063 0.813336 9.4897H8.94731C9.34527 9.49063 9.68524 9.23867 9.74985 8.89497C9.81432 8.55127 9.5845 8.21742 9.20706 8.10679C9.09956 6.65866 7.85285 5.47187 6.21268 5.25663C6.14689 4.94525 5.96432 4.66202 5.69372 4.45189V3.55864H11.1164V4.27036C11.1164 5.35313 12.9256 6.1683 14.0988 6.1683ZM11.6586 1.89794C11.6586 1.20996 12.909 0.599246 13.8277 0.491282V5.67702C12.909 5.56906 11.6586 4.95834 11.6586 4.27036V1.89794ZM5.64487 5.21933H4.11578C4.20739 4.9785 4.41392 4.74485 4.60919 4.74485H5.15145C5.34752 4.74485 5.55325 4.9785 5.64487 5.21933ZM8.94731 9.01521H0.813336C0.663604 9.01521 0.542203 8.90899 0.542203 8.77797C0.542203 8.64695 0.663604 8.54073 0.813336 8.54073H8.94731C9.09704 8.54073 9.21844 8.64695 9.21844 8.77797C9.21844 8.90899 9.09704 9.01521 8.94731 9.01521ZM8.664 8.06624H1.09665C1.2387 6.72318 2.52552 5.69544 4.06692 5.69382H5.69372C7.23512 5.69544 8.52194 6.72318 8.664 8.06624ZM5.42259 3.08415C5.27285 3.08415 5.15145 3.19038 5.15145 3.32139V4.27036H4.60919V3.32139C4.60919 2.92835 4.97339 2.60967 5.42259 2.60967H11.1164V3.08415H5.42259Z" fill="#F5BA21"/>
<path d="M1.3555 10.2014C1.3555 10.0704 1.2341 9.96417 1.08437 9.96417C0.934633 9.96417 0.813232 10.0704 0.813232 10.2014V10.4387C0.813232 10.5697 0.934633 10.6759 1.08437 10.6759C1.2341 10.6759 1.3555 10.5697 1.3555 10.4387V10.2014Z" fill="#F5BA21"/>
<path d="M2.44022 10.2014C2.44022 10.0704 2.31882 9.96417 2.16908 9.96417C2.01935 9.96417 1.89795 10.0704 1.89795 10.2014V11.6249C1.89795 11.7559 2.01935 11.8621 2.16908 11.8621C2.31882 11.8621 2.44022 11.7559 2.44022 11.6249V10.2014Z" fill="#F5BA21"/>
<path d="M3.52469 10.2014C3.52469 10.0704 3.40329 9.96417 3.25356 9.96417C3.10382 9.96417 2.98242 10.0704 2.98242 10.2014V10.4387C2.98242 10.5697 3.10382 10.6759 3.25356 10.6759C3.40329 10.6759 3.52469 10.5697 3.52469 10.4387V10.2014Z" fill="#F5BA21"/>
<path d="M4.60916 10.2014C4.60916 10.0704 4.48776 9.96417 4.33803 9.96417C4.1883 9.96417 4.06689 10.0704 4.06689 10.2014V11.6249C4.06689 11.7559 4.1883 11.8621 4.33803 11.8621C4.48776 11.8621 4.60916 11.7559 4.60916 11.6249V10.2014Z" fill="#F5BA21"/>
<path d="M5.69363 10.2014C5.69363 10.0704 5.57223 9.96417 5.4225 9.96417C5.27277 9.96417 5.15137 10.0704 5.15137 10.2014V10.4387C5.15137 10.5697 5.27277 10.6759 5.4225 10.6759C5.57223 10.6759 5.69363 10.5697 5.69363 10.4387V10.2014Z" fill="#F5BA21"/>
<path d="M6.77823 10.2014C6.77823 10.0704 6.65683 9.96417 6.5071 9.96417C6.35736 9.96417 6.23596 10.0704 6.23596 10.2014V11.6249C6.23596 11.7559 6.35736 11.8621 6.5071 11.8621C6.65683 11.8621 6.77823 11.7559 6.77823 11.6249V10.2014Z" fill="#F5BA21"/>
<path d="M7.86281 10.2014C7.86281 10.0704 7.74141 9.96417 7.59168 9.96417C7.44195 9.96417 7.32056 10.0704 7.32056 10.2014V10.4387C7.32056 10.5697 7.44195 10.6759 7.59168 10.6759C7.74141 10.6759 7.86281 10.5697 7.86281 10.4387V10.2014Z" fill="#F5BA21"/>
<path d="M2.16908 12.3365C2.01935 12.3365 1.89795 12.4428 1.89795 12.5738V13.2855C1.89795 13.4165 2.01935 13.5228 2.16908 13.5228C2.31882 13.5228 2.44022 13.4165 2.44022 13.2855V12.5738C2.44022 12.4428 2.31882 12.3365 2.16908 12.3365Z" fill="#F5BA21"/>
<path d="M4.33803 12.3365C4.1883 12.3365 4.06689 12.4428 4.06689 12.5738V13.2855C4.06689 13.4165 4.1883 13.5228 4.33803 13.5228C4.48776 13.5228 4.60916 13.4165 4.60916 13.2855V12.5738C4.60916 12.4428 4.48776 12.3365 4.33803 12.3365Z" fill="#F5BA21"/>
<path d="M6.5071 12.3365C6.35736 12.3365 6.23596 12.4428 6.23596 12.5738V13.2855C6.23596 13.4165 6.35736 13.5228 6.5071 13.5228C6.65683 13.5228 6.77823 13.4165 6.77823 13.2855V12.5738C6.77823 12.4428 6.65683 12.3365 6.5071 12.3365Z" fill="#F5BA21"/>
<path d="M8.67617 12.3365C8.52643 12.3365 8.40503 12.4428 8.40503 12.5738V13.2855C8.40503 13.4165 8.52643 13.5228 8.67617 13.5228C8.82591 13.5228 8.94731 13.4165 8.94731 13.2855V12.5738C8.94731 12.4428 8.82591 12.3365 8.67617 12.3365Z" fill="#F5BA21"/>
<path d="M8.94731 10.2014C8.94731 10.0704 8.82591 9.96417 8.67617 9.96417C8.52643 9.96417 8.40503 10.0704 8.40503 10.2014V11.6249C8.40503 11.7559 8.52643 11.8621 8.67617 11.8621C8.82591 11.8621 8.94731 11.7559 8.94731 11.6249V10.2014Z" fill="#F5BA21"/>
<path d="M1.3555 11.3877C1.3555 11.2567 1.2341 11.1505 1.08437 11.1505C0.934633 11.1505 0.813232 11.2567 0.813232 11.3877V12.8111C0.813232 12.9422 0.934633 13.0484 1.08437 13.0484C1.2341 13.0484 1.3555 12.9422 1.3555 12.8111V11.3877Z" fill="#F5BA21"/>
<path d="M3.52469 11.3877C3.52469 11.2567 3.40329 11.1505 3.25356 11.1505C3.10382 11.1505 2.98242 11.2567 2.98242 11.3877V12.8111C2.98242 12.9422 3.10382 13.0484 3.25356 13.0484C3.40329 13.0484 3.52469 12.9422 3.52469 12.8111V11.3877Z" fill="#F5BA21"/>
<path d="M5.69363 11.3877C5.69363 11.2567 5.57223 11.1505 5.4225 11.1505C5.27277 11.1505 5.15137 11.2567 5.15137 11.3877V12.8111C5.15137 12.9422 5.27277 13.0484 5.4225 13.0484C5.57223 13.0484 5.69363 12.9422 5.69363 12.8111V11.3877Z" fill="#F5BA21"/>
<path d="M7.86281 11.3877C7.86281 11.2567 7.74141 11.1505 7.59168 11.1505C7.44195 11.1505 7.32056 11.2567 7.32056 11.3877V12.8111C7.32056 12.9422 7.44195 13.0484 7.59168 13.0484C7.74141 13.0484 7.86281 12.9422 7.86281 12.8111V11.3877Z" fill="#F5BA21"/>
<path d="M1.18744 13.539C1.1374 13.5221 1.08285 13.5181 1.03016 13.5275C1.01361 13.5304 0.997331 13.5342 0.981444 13.539C0.964631 13.5462 0.948214 13.5541 0.932328 13.5628C0.918294 13.5716 0.904791 13.5811 0.891949 13.5913C0.867987 13.6143 0.84879 13.6409 0.835022 13.6696C0.819797 13.6977 0.812383 13.7288 0.81331 13.76C0.811986 13.8566 0.877783 13.9441 0.979591 13.9816C1.08127 14.0189 1.19883 13.9985 1.27667 13.93C1.35452 13.8615 1.37716 13.7587 1.33386 13.6698C1.32076 13.6408 1.30143 13.6142 1.27694 13.5915C1.24993 13.5707 1.21975 13.5531 1.18744 13.539Z" fill="#F5BA21"/>
<path d="M3.06107 13.5916C3.03658 13.6143 3.01725 13.6408 3.00415 13.6699C2.96086 13.7581 2.98349 13.8605 3.06107 13.9284C3.08702 13.9498 3.11734 13.9668 3.15057 13.9782C3.25145 14.0161 3.36848 13.9964 3.44606 13.9284C3.52377 13.8605 3.54628 13.7581 3.50298 13.6699C3.48922 13.6411 3.47002 13.6146 3.44606 13.5916C3.33737 13.5037 3.16976 13.5037 3.06107 13.5916Z" fill="#F5BA21"/>
<path d="M5.57158 13.5631C5.55715 13.554 5.54166 13.5461 5.52551 13.5394C5.5087 13.5343 5.49135 13.5304 5.47375 13.5278C5.42211 13.5185 5.3685 13.5226 5.31951 13.5394C5.28708 13.5534 5.25703 13.571 5.23002 13.5919C5.20553 13.6146 5.1862 13.6411 5.17309 13.6702C5.1298 13.7584 5.15244 13.8609 5.23002 13.9287C5.25636 13.9497 5.28668 13.9665 5.31951 13.9785C5.42039 14.0164 5.53742 13.9967 5.615 13.9287C5.69272 13.8609 5.71522 13.7584 5.67193 13.6702C5.65816 13.6414 5.63897 13.6149 5.615 13.5919C5.60163 13.5811 5.5872 13.5715 5.57158 13.5631Z" fill="#F5BA21"/>
<path d="M7.39903 13.5916C7.37454 13.6143 7.35521 13.6408 7.3421 13.6699C7.32688 13.698 7.31946 13.7288 7.32039 13.76C7.31973 13.8231 7.34806 13.8838 7.39903 13.9284C7.42538 13.9494 7.4557 13.9662 7.48853 13.9782C7.57194 14.0095 7.66766 14.0019 7.74312 13.9578C7.81859 13.9138 7.8636 13.8393 7.86267 13.76C7.86347 13.7288 7.85605 13.698 7.84096 13.6699C7.82719 13.6411 7.80799 13.6146 7.78403 13.5916C7.67534 13.5037 7.50773 13.5037 7.39903 13.5916Z" fill="#F5BA21"/>
</svg>
