<svg width="24" height="24" viewBox="0 0 24 24" fill="none" xmlns="http://www.w3.org/2000/svg">
<path d="M24 0H0V1.5H24V0Z" fill="black" fill-opacity="0.5"/>
<path d="M19.5 3.75H0V5.25H19.5V3.75Z" fill="black" fill-opacity="0.5"/>
<path d="M15 7.5H0V9H15V7.5Z" fill="black" fill-opacity="0.5"/>
<path d="M10.5 11.25H0V12.75H10.5V11.25Z" fill="black" fill-opacity="0.5"/>
<path d="M7.5 15H0V16.5H7.5V15Z" fill="black" fill-opacity="0.5"/>
<path d="M6 18.75H0V20.25H6V18.75Z" fill="black" fill-opacity="0.5"/>
<path d="M3 22.5H0V24H3V22.5Z" fill="black" fill-opacity="0.5"/>
<path d="M20.0302 7.71982C19.737 7.42657 19.263 7.42657 18.9697 7.71982L16.7197 9.96982L17.7802 11.0303L18.75 10.0606V21.7501H20.25V10.0606L21.2197 11.0303L22.2802 9.96982L20.0302 7.71982Z" fill="black" fill-opacity="0.5"/>
</svg>
